<?xml version="1.0" encoding="UTF-8"?>
<svg width="456px" height="456px" viewBox="0 0 456 456" xmlns="http://www.w3.org/2000/svg" xmlns:xlink="http://www.w3.org/1999/xlink" version="1.1">
 <!-- Generated by Pixelmator Pro 2.1.4 -->
 <g id="group">
  <path id="Path" d="M-0 0 L455.731 0 455.731 455.731 -0 455.731 Z" fill="#1a9bf0" fill-opacity="1" stroke="none"/>
  <g id="group-1">
   <path id="Path-1" d="M296.208 159.16 C234.445 97.397 152.266 63.382 64.81 63.382 L64.81 127.73 C135.078 127.73 201.098 155.051 250.708 204.661 300.317 254.271 327.639 320.291 327.639 390.559 L391.987 390.559 C391.986 303.103 357.971 220.923 296.208 159.16 Z" fill="#ffffff" fill-opacity="1" stroke="none"/>
   <path id="Path-2" d="M64.143 172.273 L64.143 236.621 C149.024 236.621 218.081 305.677 218.081 390.56 L282.429 390.56 C282.429 270.196 184.507 172.273 64.143 172.273 Z" fill="#ffffff" fill-opacity="1" stroke="none"/>
   <path id="Path-3" d="M155.921 346.26 C155.921 371.714 135.287 392.348 109.833 392.348 84.379 392.348 63.745 371.714 63.745 346.26 63.745 320.806 84.379 300.172 109.833 300.172 135.287 300.172 155.921 320.806 155.921 346.26 Z" fill="#ffffff" fill-opacity="1" stroke="none"/>
  </g>
 </g>
</svg>
